<?xml version="1.0" encoding="UTF-8" standalone="no"?>
<svg
   xmlns:dc="http://purl.org/dc/elements/1.1/"
   xmlns:cc="http://creativecommons.org/ns#"
   xmlns:rdf="http://www.w3.org/1999/02/22-rdf-syntax-ns#"
   xmlns:svg="http://www.w3.org/2000/svg"
   xmlns="http://www.w3.org/2000/svg"
   xmlns:sodipodi="http://sodipodi.sourceforge.net/DTD/sodipodi-0.dtd"
   xmlns:inkscape="http://www.inkscape.org/namespaces/inkscape"
   sodipodi:docname="vol_up.svg"
   inkscape:version="1.0 (4035a4fb49, 2020-05-01)"
   id="svg8"
   version="1.1"
   viewBox="0 0 210 297"
   height="297mm"
   width="210mm">
  <defs
     id="defs2" />
  <sodipodi:namedview
     inkscape:window-maximized="0"
     inkscape:window-y="0"
     inkscape:window-x="182"
     inkscape:window-height="861"
     inkscape:window-width="1274"
     inkscape:guide-bbox="true"
     showguides="true"
     showgrid="false"
     inkscape:document-rotation="0"
     inkscape:current-layer="layer1"
     inkscape:document-units="mm"
     inkscape:cy="354.15937"
     inkscape:cx="312.54279"
     inkscape:zoom="1.979899"
     inkscape:pageshadow="2"
     inkscape:pageopacity="0.0"
     borderopacity="1.0"
     bordercolor="#666666"
     pagecolor="#ffffff"
     id="base">
    <sodipodi:guide
       id="guide852"
       orientation="0,-1"
       position="62.610526,287.42536" />
  </sodipodi:namedview>
  <metadata
     id="metadata5">
    <rdf:RDF>
      <cc:Work
         rdf:about="">
        <dc:format>image/svg+xml</dc:format>
        <dc:type
           rdf:resource="http://purl.org/dc/dcmitype/StillImage" />
        <dc:title></dc:title>
      </cc:Work>
    </rdf:RDF>
  </metadata>
  <g
     id="layer1"
     inkscape:groupmode="layer"
     inkscape:label="Layer 1">
    <path
       sodipodi:nodetypes="ccccccc"
       id="path868"
       d="m 74.839285,95.249998 c 3.534186,1.636972 12.945684,16.252982 16.158481,7.559522 1.322917,-9.16592 0.246087,-22.104609 0.283483,-32.789431 -2.324097,-4.599051 -3.874256,-4.630208 -15.591517,7.465028 -2.929315,0.283484 -7.287201,0.02584 -10.016369,0.283483 -2.194433,1.70998 -2.456847,0.661458 -2.551339,8.220981 0.128645,11.826025 2.031741,8.922555 11.717261,9.260417 z"
       style="fill:#cccccc;stroke:#b3b3b3;stroke-width:0.264583px;stroke-linecap:butt;stroke-linejoin:miter;stroke-opacity:1" />
    <path
       sodipodi:nodetypes="ccccc"
       id="path870"
       d="m 95.155506,79.18601 c 0,0 7.181544,5.291667 0.188986,14.45759 -0.188986,3.212796 2.834822,2.078868 3.307292,1.039434 0.47247,-1.039434 7.370536,-9.260417 -1.039434,-17.575892 -2.456844,-0.850446 -2.456844,2.078868 -2.456844,2.078868 z"
       style="fill:#cccccc;stroke:#b3b3b3;stroke-width:0.264583px;stroke-linecap:butt;stroke-linejoin:miter;stroke-opacity:1" />
    <path
       style="fill:#cccccc;stroke:#b3b3b3;stroke-width:0.373302px;stroke-linecap:butt;stroke-linejoin:miter;stroke-opacity:1"
       d="m 100.59331,74.854112 c 0,0 9.99162,13.084042 0.0665,22.612799 -1.483903,4.069629 2.98172,2.305336 3.62041,0.774692 0.63869,-1.530644 10.43609,-12.786212 -0.93265,-25.03137 -3.32121,-1.252345 -2.75425,1.643879 -2.75425,1.643879 z"
       id="path870-3"
       sodipodi:nodetypes="cccccc" />
    <path
       style="fill:#cccccc;stroke:#b3b3b3;stroke-width:0.457706px;stroke-linecap:butt;stroke-linejoin:miter;stroke-opacity:1"
       d="m 105.53185,70.741136 c 0,0 13.97128,13.613844 0.01,31.302584 -1.049,3.45984 2.4116,2.68894 3.99471,0.11606 4.03996,-3.706833 11.713,-17.209643 -1.32838,-33.257159 -3.80983,-1.641223 -2.67633,1.838515 -2.6759,1.838515 -1.4e-4,4.2e-5 -4.3e-4,0 -4.3e-4,0 z"
       id="path870-6"
       sodipodi:nodetypes="cccccc" />
  </g>
</svg>
